<svg xmlns="http://www.w3.org/2000/svg" width="162" height="30" viewBox="0 0 162 30"><div xmlns="" id="in-page-channel-node-id" data-channel-name="in_page_channel_-nCT4z"/>
  <g fill="none" fill-rule="evenodd">
    <path fill="#DC1C2E" d="M89.9837323,1.05074465 L83.5202053,10.2288534 L76.9729343,1.05074465 L76.8992396,1.05074465 L70.3275154,13.395202 L70.3275154,29.3736264 L76.5562243,29.3736264 L76.5562243,11.8353671 L83.2875645,20.5270864 L83.3225695,20.5852272 L83.5920576,20.5852272 L90.4009448,11.755465 L90.4009448,29.3736264 L96.6721956,29.3736264 L96.6721956,1.05074465 L89.9837323,1.05074465 Z M35.1463389,23.8851336 L35.1461714,17.8560975 L46.6046913,17.8560975 L46.6046913,12.3674386 L35.1461714,12.3674386 L35.1461714,6.53940351 L48.1748907,6.53923739 L48.1748907,1.05074465 L28.7903392,1.05074465 L28.7903392,29.3736264 L40.8156382,29.3736264 L43.7369628,23.8851336 L35.1463389,23.8851336 Z M147.761041,14.8912482 L156.320345,1.05074465 L149.200935,1.05074465 L144.14012,10.0281845 L139.163048,1.05074465 L131.874978,1.05074465 L140.348193,14.9708181 L131.491933,29.3736264 L138.610505,29.3736264 L144.011489,19.8719225 L149.370601,29.3736264 L156.659341,29.3736264 L147.761041,14.8912482 Z M118.292711,17.9054341 L112.139874,17.9054341 L115.236224,9.23547606 L118.292711,17.9054341 Z M112.307362,0.89010989 L101.567868,29.3736264 L108.025701,29.3736264 L110.190147,23.2736584 L120.242271,23.2736584 L122.449092,29.3736264 L129.075752,29.3736264 L118.336425,0.89010989 L112.307362,0.89010989 Z M15.5324964,10.637168 L15.5324964,10.6773682 C15.5324964,13.2432054 13.7696859,14.7752988 10.8168735,14.7752988 L6.39837422,14.7752988 L6.39837422,6.53940351 L10.6895827,6.53940351 C13.8577845,6.53940351 15.5324964,7.95637818 15.5324964,10.637168 L15.5324964,10.637168 Z M21.9734126,10.5168996 L21.9734126,10.3562648 C21.9734126,7.62098874 21.0951058,5.34469286 19.4336255,3.77322974 C17.5502236,1.99212747 14.7320716,1.05074465 11.2836624,1.05074465 L0,1.05074465 L0,29.3736264 L6.39837422,29.3736264 L6.39837422,20.1435231 L10.0661926,20.1435231 L15.5408708,29.3736264 L22.8686356,29.3736264 L16.5074437,18.8772162 C19.0309845,17.7891525 21.9734126,15.4598654 21.9734126,10.5168996 L21.9734126,10.5168996 Z"/>
    <polygon fill="#003DA5" points="62.747 .89 48.066 29.374 55.634 29.374 70.319 .89"/>
    <path fill="#DC1C2E" d="M159.358793,1.7126649 L159.648611,1.7126649 C159.979706,1.7126649 160.259512,1.6177765 160.259512,1.37404076 C160.259512,1.19955939 160.099497,1.02621102 159.648611,1.02621102 C159.519334,1.02621102 159.429578,1.03470849 159.358793,1.04193134 L159.358793,1.7126649 Z M159.358793,2.81039629 L158.960249,2.81039629 L158.960249,0.828786488 C159.168742,0.804143828 159.368805,0.781342285 159.668634,0.781342285 C160.049086,0.781342285 160.299384,0.845214928 160.449562,0.931322615 C160.600092,1.01813842 160.679835,1.15126544 160.679835,1.340759 C160.679835,1.60205618 160.460979,1.76053398 160.189253,1.82327362 L160.189253,1.83941882 C160.410568,1.8711427 160.559341,2.02749613 160.60905,2.32065882 C160.669999,2.62869207 160.729368,2.74779826 160.769767,2.81039629 L160.349267,2.81039629 C160.289547,2.74779826 160.229652,2.5652443 160.179241,2.30465525 C160.118818,2.05199717 159.960384,1.95753364 159.639126,1.95753364 L159.358793,1.95753364 L159.358793,2.81039629 Z M159.779643,0.276734244 C158.788817,0.276734244 157.979786,0.949025676 157.979786,1.77653754 C157.979786,2.62061948 158.788817,3.28497994 159.789128,3.28497994 C160.790142,3.29106979 161.589512,2.62061948 161.589512,1.78376039 C161.589512,0.949025676 160.790142,0.276734244 159.789128,0.276734244 L159.779643,0.276734244 Z M159.789128,0 C161.021118,0 162,0.790123003 162,1.77653754 C162,2.77824753 161.021118,3.56043956 159.779643,3.56043956 C158.548883,3.56043956 157.549451,2.77824753 157.549451,1.77653754 C157.549451,0.790123003 158.548883,0 159.779643,0 L159.789128,0 Z"/>
  </g>
</svg>